<?xml version="1.0" encoding="UTF-8" standalone="no"?>
<!-- Created with Inkscape (http://www.inkscape.org/) -->

<svg
   width="49.980389mm"
   height="7.9374671mm"
   viewBox="0 0 49.980389 7.9374671"
   version="1.1"
   id="svg5"
   inkscape:version="1.2.2 (732a01da63, 2022-12-09)"
   sodipodi:docname="logotype_id_dark_30.svg"
   inkscape:export-filename="logo-150.png"
   inkscape:export-xdpi="4"
   inkscape:export-ydpi="4"
   xmlns:inkscape="http://www.inkscape.org/namespaces/inkscape"
   xmlns:sodipodi="http://sodipodi.sourceforge.net/DTD/sodipodi-0.dtd"
   xmlns="http://www.w3.org/2000/svg"
   xmlns:svg="http://www.w3.org/2000/svg">
  <sodipodi:namedview
     id="namedview7"
     pagecolor="#505050"
     bordercolor="#ffffff"
     borderopacity="1"
     inkscape:showpageshadow="0"
     inkscape:pageopacity="0"
     inkscape:pagecheckerboard="1"
     inkscape:deskcolor="#505050"
     inkscape:document-units="mm"
     showgrid="false"
     inkscape:zoom="9.5144351"
     inkscape:cx="90.178764"
     inkscape:cy="5.1500693"
     inkscape:window-width="2880"
     inkscape:window-height="1514"
     inkscape:window-x="-11"
     inkscape:window-y="-11"
     inkscape:window-maximized="1"
     inkscape:current-layer="layer1" />
  <defs
     id="defs2">
    <inkscape:path-effect
       effect="fillet_chamfer"
       id="path-effect1570"
       is_visible="true"
       lpeversion="1"
       nodesatellites_param="F,0,0,1,0,9.525,0,1 @ F,0,0,1,0,9.525,0,1 @ F,0,0,1,0,9.525,0,1 @ F,0,0,1,0,9.525,0,1"
       unit="px"
       method="auto"
       mode="F"
       radius="36"
       chamfer_steps="1"
       flexible="false"
       use_knot_distance="true"
       apply_no_radius="true"
       apply_with_radius="true"
       only_selected="false"
       hide_knots="false" />
  </defs>
  <g
     inkscape:label="Layer 1"
     inkscape:groupmode="layer"
     id="layer1"
     transform="translate(26.807412,-61.904597)">
    <g
       aria-label="D"
       transform="rotate(-90)"
       id="text2404"
       style="font-style:italic;font-weight:bold;font-size:8.71054px;-inkscape-font-specification:'sans-serif, Bold Italic';writing-mode:vertical-lr;direction:rtl;fill:#00bc8c;stroke-width:0.0272204">
      <path
         d="m -63.931748,-24.166179 -3.874659,-0.761321 v 0.58694 q 0,1.144109 0.642232,1.811861 0.642232,0.667751 1.735303,0.667751 0.740056,0 1.11859,-0.438079 0.378534,-0.433826 0.378534,-1.292971 z m 1.237679,-1.403554 v 1.722544 q 0,1.233426 -0.148861,1.850139 -0.144609,0.616713 -0.489118,1.025019 -0.344508,0.41256 -0.837879,0.620967 -0.489117,0.208406 -1.110083,0.208406 -0.863398,0 -1.628973,-0.357268 -0.761322,-0.353015 -1.280211,-0.995247 -0.463598,-0.561422 -0.659245,-1.305731 -0.195647,-0.740055 -0.195647,-2.279711 v -1.726797 z"
         id="path2567" />
    </g>
    <g
       aria-label="I"
       transform="rotate(-90)"
       id="text2404-31"
       style="font-style:italic;font-size:10.8881px;-inkscape-font-specification:'sans-serif, Italic';writing-mode:vertical-lr;direction:rtl;fill:#00bc8c;stroke-width:0.0340253">
      <path
         d="m -61.904597,-22.996718 v 1.079241 l -7.937467,-1.547089 v -1.07924 z"
         id="path2570" />
    </g>
    <g
       aria-label="Investor's Dream"
       transform="rotate(-90)"
       id="text2404-3"
       style="font-style:italic;font-weight:bold;font-size:8.71054px;-inkscape-font-specification:'sans-serif, Bold Italic';writing-mode:vertical-lr;direction:rtl;fill:#00bc8c;stroke-width:0.0272204">
      <path
         d="m -64.321979,-17.827807 v 0.818739 l -3.175009,-0.618839 v -0.81874 z"
         style="font-size:4.35527px"
         id="path2573" />
      <path
         d="m -66.046649,-14.10839 -1.450339,-0.282837 v -0.763449 l 1.241932,0.240306 q 0.121216,0.02552 0.204154,0.03828 0.08506,0.01489 0.133975,0.01489 0.136102,0 0.210533,-0.07656 0.07443,-0.07443 0.07443,-0.212659 0,-0.236053 -0.185014,-0.40618 -0.182887,-0.168001 -0.508256,-0.233926 l -1.171755,-0.229672 v -0.763449 l 2.381788,0.463598 v 0.765575 l -0.348762,-0.07018 q 0.20628,0.210533 0.30623,0.423192 0.09995,0.21266 0.09995,0.444459 0,0.329622 -0.172254,0.508257 -0.172254,0.178634 -0.484864,0.178634 -0.06805,0 -0.150989,-0.01063 -0.08294,-0.0085 -0.18076,-0.02765 z"
         style="font-size:4.35527px"
         id="path2575" />
      <path
         d="m -65.1152,-13.542715 v 0.701777 l -1.662999,0.308356 1.662999,0.897424 v 0.771955 l -2.381788,-1.399301 v -0.80598 z"
         style="font-size:4.35527px"
         id="path2577" />
      <path
         d="m -66.395411,-8.2389833 -0.121216,-0.025519 V -10.04659 q -0.01276,0 -0.03828,-0.0021 -0.02339,-0.0021 -0.03615,-0.0021 -0.231799,0 -0.346635,0.1382291 -0.114836,0.1403554 -0.114836,0.4189396 0,0.2403054 0.0723,0.50613 0.0723,0.2679511 0.214786,0.5614215 l -0.591194,-0.1169628 q -0.102076,-0.2785842 -0.150988,-0.5550418 -0.05104,-0.2743309 -0.05104,-0.5592949 0,-0.5571687 0.257318,-0.8612717 0.257318,-0.301977 0.727296,-0.301977 0.272204,0 0.527396,0.0957 0.257318,0.09782 0.469978,0.282838 0.255191,0.219039 0.38704,0.5231423 0.131849,0.30623 0.131849,0.6783844 0,0.4827374 -0.257318,0.7655748 -0.257318,0.2849639 -0.693271,0.2849639 -0.08506,0 -0.18076,-0.01276 -0.09357,-0.010633 -0.20628,-0.036152 z m 0.348762,-0.7187897 q 0.02765,0.00638 0.05529,0.00851 0.02977,0.00425 0.05742,0.00425 0.170128,0 0.270078,-0.1020766 0.09995,-0.1020767 0.09995,-0.2764576 0,-0.2232927 -0.123342,-0.3806608 -0.121216,-0.1552416 -0.359395,-0.2381788 z"
         style="font-size:4.35527px"
         id="path2579" />
      <path
         d="m -65.189631,-5.5849913 -0.591194,-0.1127096 q 0.10633,-0.2232927 0.161622,-0.4444587 0.05529,-0.2211661 0.05529,-0.4189395 0,-0.2254193 -0.05954,-0.3487619 -0.05742,-0.121216 -0.165874,-0.121216 -0.0638,0 -0.102077,0.068051 -0.03828,0.068051 -0.08081,0.2679512 l -0.02552,0.1382288 q -0.09782,0.4614714 -0.253065,0.6464853 -0.153115,0.1850139 -0.427445,0.1850139 -0.414687,0 -0.648612,-0.3253692 -0.231799,-0.3253693 -0.231799,-0.9101834 0,-0.2445586 0.03828,-0.4997502 0.03828,-0.2551916 0.114836,-0.5210162 l 0.597574,0.1148362 q -0.121216,0.2062799 -0.182887,0.4402055 -0.06167,0.2360523 -0.06167,0.4827375 0,0.2403054 0.05742,0.3615214 0.05742,0.121216 0.168001,0.121216 0.07656,0 0.119089,-0.068051 0.04253,-0.068051 0.08719,-0.2807107 l 0.02552,-0.1382288 q 0.08506,-0.4083066 0.250938,-0.5826875 0.165875,-0.1743809 0.459345,-0.1743809 0.397674,0 0.61246,0.2998501 0.214786,0.3019767 0.214786,0.8612716 0,0.2445586 -0.03402,0.4806109 -0.0319,0.2381788 -0.09782,0.4784842 z"
         style="font-size:4.35527px"
         id="path2581" />
      <path
         d="M -64.438942,-3.8645745 -65.1152,-3.9942969 v 0.7783344 l -0.544409,-0.1084565 v -0.7783343 l -1.008006,-0.1956469 q -0.03403,-0.00851 -0.05742,-0.01276 -0.02339,-0.00213 -0.04466,-0.00213 -0.09782,0 -0.140356,0.063798 -0.04253,0.065925 -0.04253,0.2190395 v 0.3934203 l -0.544409,-0.1084564 v -0.6401056 q 0,-0.3445086 0.144608,-0.5252694 0.144609,-0.1807607 0.416813,-0.1807607 0.05954,0 0.127596,0.00638 0.06805,0.00638 0.138229,0.019139 l 1.010133,0.1956469 v -0.374281 l 0.544409,0.1042032 v 0.3785342 l 0.676258,0.131849 z"
         style="font-size:4.35527px"
         id="path2583" />
      <path
         d="m -65.602191,-1.7167113 q 0,-0.2955969 -0.267951,-0.4869906 -0.267951,-0.1913937 -0.682637,-0.1913937 -0.22542,0 -0.344509,0.1020766 -0.116963,0.1042033 -0.116963,0.3019768 0,0.2955969 0.267951,0.4869906 0.270078,0.1913937 0.686891,0.1913937 0.223293,0 0.340256,-0.1042032 0.116962,-0.1020767 0.116962,-0.2998502 z m 0.544409,0.061671 q 0,0.5316492 -0.270078,0.83575251 -0.270077,0.30410332 -0.735802,0.30410332 -0.270078,0 -0.525269,-0.0956968 -0.253065,-0.0956969 -0.463598,-0.27858416 -0.250939,-0.21691282 -0.378535,-0.51250982 -0.127595,-0.2955969 -0.127595,-0.6592449 0,-0.5252694 0.270077,-0.8293727 0.270078,-0.3019767 0.735803,-0.3019767 0.267951,0 0.523143,0.097823 0.257318,0.097824 0.469977,0.2807108 0.246686,0.2126596 0.374281,0.50613 0.127596,0.2955969 0.127596,0.6528651 z"
         style="font-size:4.35527px"
         id="path2585" />
      <path
         d="m -65.763812,1.8814905 q 0.04466,-0.078684 0.06805,-0.174381 0.02339,-0.095697 0.02339,-0.2062798 0,-0.2913438 -0.187141,-0.4848641 -0.18714,-0.19139366 -0.540155,-0.25944475 L -67.496988,0.53960799 V -0.2238402 L -65.1152,0.23975786 V 1.0053327 l -0.408306,-0.0829373 q 0.225419,0.15098832 0.344508,0.37640762 0.121216,0.2275458 0.121216,0.5040034 0,0.040405 -0.0043,0.091444 -0.0043,0.051038 -0.01276,0.1212161 z"
         style="font-size:4.35527px"
         id="path2587" />
      <path
         d="m -64.321979,2.7087354 h -1.180262 V 2.204732 h 1.180262 z"
         style="font-size:4.35527px"
         id="path2589" />
      <path
         d="m -65.189631,5.562628 -0.591194,-0.1127097 q 0.10633,-0.2232926 0.161622,-0.4444587 0.05529,-0.221166 0.05529,-0.4189395 0,-0.2254192 -0.05954,-0.3487618 -0.05742,-0.121216 -0.165874,-0.121216 -0.0638,0 -0.102077,0.068051 -0.03828,0.068051 -0.08081,0.2679512 l -0.02552,0.1382288 q -0.09782,0.4614715 -0.253065,0.6464854 -0.153115,0.1850139 -0.427445,0.1850139 -0.414687,0 -0.648612,-0.3253693 -0.231799,-0.3253693 -0.231799,-0.9101834 0,-0.2445586 0.03828,-0.4997502 0.03828,-0.2551916 0.114836,-0.5210161 l 0.597574,0.1148362 q -0.121216,0.2062798 -0.182887,0.4402055 -0.06167,0.2360522 -0.06167,0.4827374 0,0.2403054 0.05742,0.3615214 0.05742,0.121216 0.168001,0.121216 0.07656,0 0.119089,-0.068051 0.04253,-0.068051 0.08719,-0.2807108 l 0.02552,-0.1382288 q 0.08506,-0.4083065 0.250938,-0.5826875 0.165875,-0.1743809 0.459345,-0.1743809 0.397674,0 0.61246,0.2998501 0.214786,0.3019768 0.214786,0.8612717 0,0.2445586 -0.03402,0.4806108 -0.0319,0.2381788 -0.09782,0.4784843 z"
         style="font-size:4.35527px"
         id="path2591" />
      <path
         d="m -64.940819,8.6440671 -1.93733,-0.3806608 v 0.2934704 q 0,0.5720545 0.321117,0.9059301 0.321116,0.3338757 0.867651,0.3338757 0.370028,0 0.559295,-0.2190394 0.189267,-0.2169129 0.189267,-0.6464854 z m 0.61884,-0.7017768 v 0.8612716 q 0,0.616713 -0.07443,0.9250695 -0.07231,0.3083566 -0.244559,0.5125096 -0.172254,0.20628 -0.418939,0.310483 -0.244559,0.104204 -0.555042,0.104204 -0.431699,0 -0.814487,-0.178635 -0.38066,-0.176507 -0.640105,-0.4976232 -0.231799,-0.2807107 -0.329623,-0.6528651 -0.09782,-0.3700278 -0.09782,-1.1398558 V 7.3234506 Z"
         style="font-size:4.35527px"
         id="path2593" />
      <path
         d="m -65.763812,13.086529 q 0.04466,-0.07869 0.06805,-0.174381 0.02339,-0.0957 0.02339,-0.20628 0,-0.291344 -0.187141,-0.484864 -0.18714,-0.191394 -0.540155,-0.259445 l -1.097324,-0.216913 v -0.763448 l 2.381788,0.463598 v 0.765575 l -0.408306,-0.08294 q 0.225419,0.150989 0.344508,0.376408 0.121216,0.227546 0.121216,0.504003 0,0.04041 -0.0043,0.09144 -0.0043,0.05104 -0.01276,0.121216 z"
         style="font-size:4.35527px"
         id="path2595" />
      <path
         d="m -66.395411,15.73414 -0.121216,-0.02552 v -1.782088 q -0.01276,0 -0.03828,-0.0021 -0.02339,-0.0021 -0.03615,-0.0021 -0.231799,0 -0.346635,0.138229 -0.114836,0.140355 -0.114836,0.418939 0,0.240306 0.0723,0.50613 0.0723,0.267951 0.214786,0.561422 l -0.591194,-0.116963 q -0.102076,-0.278584 -0.150988,-0.555042 -0.05104,-0.274331 -0.05104,-0.559295 0,-0.557168 0.257318,-0.861271 0.257318,-0.301977 0.727296,-0.301977 0.272204,0 0.527396,0.0957 0.257318,0.09782 0.469978,0.282837 0.255191,0.21904 0.38704,0.523143 0.131849,0.30623 0.131849,0.678384 0,0.482738 -0.257318,0.765575 -0.257318,0.284964 -0.693271,0.284964 -0.08506,0 -0.18076,-0.01276 -0.09357,-0.01063 -0.20628,-0.03615 z m 0.348762,-0.718789 q 0.02765,0.0064 0.05529,0.0085 0.02977,0.0043 0.05742,0.0043 0.170128,0 0.270078,-0.102076 0.09995,-0.102077 0.09995,-0.276458 0,-0.223293 -0.123342,-0.380661 -0.121216,-0.155241 -0.359395,-0.238179 z"
         style="font-size:4.35527px"
         id="path2597" />
      <path
         d="m -66.425183,17.382254 q 0,-0.284964 -0.08932,-0.431699 -0.08719,-0.144609 -0.259444,-0.144609 -0.129723,0 -0.204154,0.08506 -0.07443,0.08719 -0.07443,0.238179 0,0.233926 0.140355,0.391294 0.142482,0.157368 0.3998,0.210533 l 0.08719,0.01701 z m 0.28709,1.188767 -1.358895,-0.265824 v -0.761322 l 0.353015,0.0638 q -0.21266,-0.18714 -0.314736,-0.395547 -0.09995,-0.208406 -0.09995,-0.452965 0,-0.338129 0.17438,-0.538029 0.176508,-0.197773 0.474231,-0.197773 0.455092,0 0.695398,0.350888 0.242432,0.353015 0.242432,1.016513 v 0.448712 l 0.05954,0.0085 q 0.02977,0.0064 0.04253,0.0064 0.01276,0.0021 0.02339,0.0021 0.140355,0 0.210533,-0.133976 0.0723,-0.131849 0.0723,-0.39342 0,-0.236052 -0.04891,-0.457218 -0.04891,-0.221166 -0.146735,-0.427446 l 0.580561,0.114836 q 0.05955,0.238179 0.08932,0.486991 0.0319,0.250938 0.0319,0.518889 0,0.529523 -0.182887,0.786841 -0.180761,0.257318 -0.552915,0.257318 -0.07231,0 -0.159495,-0.01063 -0.08506,-0.0085 -0.185014,-0.02765 z"
         style="font-size:4.35527px"
         id="path2599" />
      <path
         d="m -65.510747,21.618435 q 0.21904,0.176508 0.336002,0.3998 0.116963,0.22542 0.116963,0.467852 0,0.318989 -0.176507,0.501876 -0.174381,0.185014 -0.480611,0.185014 -0.0638,0 -0.146735,-0.01063 -0.08081,-0.0085 -0.185014,-0.02764 l -1.450339,-0.282838 V 22.08416 l 1.241932,0.240305 0.0319,0.0064 q 0.263698,0.05529 0.338129,0.05529 0.116963,0 0.185014,-0.06805 0.06805,-0.06592 0.06805,-0.18076 0,-0.21904 -0.180761,-0.372155 -0.178634,-0.150988 -0.512509,-0.216913 l -1.171755,-0.229672 v -0.767701 l 1.241932,0.244558 q 0.159495,0.0319 0.240306,0.04466 0.08294,0.01276 0.129722,0.01276 0.119089,0 0.185014,-0.06592 0.06805,-0.06593 0.06805,-0.182887 0,-0.210534 -0.18714,-0.370028 -0.185014,-0.157368 -0.50613,-0.21904 l -1.171755,-0.229672 v -0.763448 l 2.381788,0.463598 v 0.765574 l -0.348762,-0.07018 q 0.202027,0.178634 0.304104,0.380661 0.102076,0.202026 0.102076,0.421066 0,0.246685 -0.127596,0.423192 -0.125469,0.176508 -0.325369,0.21266 z"
         style="font-size:4.35527px"
         id="path2601" />
    </g>
  </g>
</svg>
