<?xml version="1.0" encoding="UTF-8" standalone="no"?>
<!-- Created with Inkscape (http://www.inkscape.org/) -->

<svg
   width="149.94176mm"
   height="23.812473mm"
   viewBox="0 0 149.94176 23.812473"
   version="1.1"
   id="svg5"
   inkscape:version="1.2.2 (732a01da63, 2022-12-09)"
   sodipodi:docname="logotype_id_light_90.svg"
   inkscape:export-filename="logo-150.png"
   inkscape:export-xdpi="4"
   inkscape:export-ydpi="4"
   xmlns:inkscape="http://www.inkscape.org/namespaces/inkscape"
   xmlns:sodipodi="http://sodipodi.sourceforge.net/DTD/sodipodi-0.dtd"
   xmlns="http://www.w3.org/2000/svg"
   xmlns:svg="http://www.w3.org/2000/svg">
  <sodipodi:namedview
     id="namedview7"
     pagecolor="#505050"
     bordercolor="#ffffff"
     borderopacity="1"
     inkscape:showpageshadow="0"
     inkscape:pageopacity="0"
     inkscape:pagecheckerboard="1"
     inkscape:deskcolor="#505050"
     inkscape:document-units="mm"
     showgrid="false"
     inkscape:zoom="2.3786088"
     inkscape:cx="193.39036"
     inkscape:cy="105.94428"
     inkscape:window-width="2880"
     inkscape:window-height="1514"
     inkscape:window-x="-11"
     inkscape:window-y="-11"
     inkscape:window-maximized="1"
     inkscape:current-layer="layer1" />
  <defs
     id="defs2">
    <inkscape:path-effect
       effect="fillet_chamfer"
       id="path-effect1570"
       is_visible="true"
       lpeversion="1"
       nodesatellites_param="F,0,0,1,0,9.525,0,1 @ F,0,0,1,0,9.525,0,1 @ F,0,0,1,0,9.525,0,1 @ F,0,0,1,0,9.525,0,1"
       unit="px"
       method="auto"
       mode="F"
       radius="36"
       chamfer_steps="1"
       flexible="false"
       use_knot_distance="true"
       apply_no_radius="true"
       apply_with_radius="true"
       only_selected="false"
       hide_knots="false" />
  </defs>
  <g
     inkscape:label="Layer 1"
     inkscape:groupmode="layer"
     id="layer1"
     transform="translate(26.80739,-61.904616)">
    <g
       aria-label="D"
       transform="rotate(-90)"
       id="text2404"
       style="font-style:italic;font-weight:bold;font-size:26.1317px;-inkscape-font-specification:'sans-serif, Bold Italic';writing-mode:vertical-lr;direction:rtl;fill:#ffffff;stroke-width:0.0816615">
      <path
         d="m -67.986081,-18.883666 -11.624014,-2.283972 v 1.760827 q 0,3.432338 1.926703,5.435598 1.926702,2.003261 5.205925,2.003261 2.220173,0 3.355779,-1.314241 1.135607,-1.301481 1.135607,-3.878925 z m 3.713049,-4.210675 v 5.167646 q 0,3.70029 -0.446587,5.550435 -0.433827,1.850145 -1.467356,3.075068 -1.033529,1.237683 -2.513645,1.8629044 -1.467356,0.6252213 -3.330261,0.6252213 -2.590203,0 -4.886934,-1.071808 -2.283972,-1.0590484 -3.840645,-2.9857507 -1.390799,-1.68427 -1.977741,-3.917203 -0.586943,-2.220174 -0.586943,-6.839156 v -5.180406 z"
         id="path1618" />
    </g>
    <g
       aria-label="I"
       transform="rotate(-90)"
       id="text2404-31"
       style="font-style:italic;font-size:32.6644px;-inkscape-font-specification:'sans-serif, Italic';writing-mode:vertical-lr;direction:rtl;fill:#ffffff;stroke-width:0.102076">
      <path
         d="m -61.904616,-15.375278 v 3.237731 l -23.812474,-4.641279 v -3.237731 z"
         id="path1621" />
    </g>
    <g
       aria-label="Investor's Dream"
       transform="rotate(-90)"
       id="text2404-3"
       style="font-style:italic;font-weight:bold;font-size:26.1317px;-inkscape-font-specification:'sans-serif, Bold Italic';writing-mode:vertical-lr;direction:rtl;fill:#ffffff;stroke-width:0.0816615">
      <path
         d="M -69.15676,0.13117191 V 2.587408 l -9.525092,-1.8565317 v -2.4562361 z"
         style="font-size:13.0659px"
         id="path1624" />
      <path
         d="m -74.330806,11.289501 -4.351046,-0.848517 V 8.1506232 l 3.725823,0.7209212 q 0.36365,0.076558 0.612464,0.114837 0.255193,0.044659 0.401929,0.044659 0.40831,0 0.631604,-0.229674 0.223294,-0.2232942 0.223294,-0.6379834 0,-0.7081616 -0.555046,-1.2185483 -0.548665,-0.5040069 -1.52478,-0.7017817 L -78.681852,5.5540308 V 3.2636704 l 7.145414,1.3908038 v 2.2967402 l -1.046293,-0.2105345 q 0.618844,0.6316036 0.918696,1.269587 0.299852,0.6379834 0.299852,1.3333852 0,0.9888739 -0.516766,1.5247799 -0.516767,0.535907 -1.454603,0.535907 -0.204154,0 -0.452968,-0.0319 -0.248813,-0.02552 -0.542286,-0.08294 z"
         style="font-size:13.0659px"
         id="path1626" />
      <path
         d="m -71.536438,12.986537 v 2.105345 l -4.98903,0.925076 4.98903,2.69229 v 2.31588 l -7.145414,-4.197931 V 14.40924 Z"
         style="font-size:13.0659px"
         id="path1628" />
      <path
         d="m -75.377098,28.897843 -0.363651,-0.07656 v -5.346301 q -0.03828,0 -0.114837,-0.0064 -0.07018,-0.0064 -0.108457,-0.0064 -0.695402,0 -1.039913,0.414689 -0.344511,0.42107 -0.344511,1.256828 0,0.720921 0.216914,1.5184 0.216915,0.803859 0.644364,1.684276 l -1.773594,-0.35089 q -0.306232,-0.835759 -0.452969,-1.665137 -0.153116,-0.822999 -0.153116,-1.677896 0,-1.671517 0.77196,-2.583833 0.77196,-0.905937 2.181904,-0.905937 0.816618,0 1.582198,0.287093 0.77196,0.293472 1.409944,0.848518 0.76558,0.657123 1.161129,1.569439 0.39555,0.918696 0.39555,2.035167 0,1.448222 -0.77196,2.29674 -0.77196,0.854898 -2.079826,0.854898 -0.255193,0 -0.542285,-0.03828 -0.280713,-0.0319 -0.618844,-0.108457 z m 1.046292,-2.156384 q 0.08294,0.01914 0.165876,0.02552 0.08932,0.01276 0.172256,0.01276 0.510386,0 0.810238,-0.306232 0.299853,-0.306232 0.299853,-0.829379 0,-0.669882 -0.370031,-1.14199 -0.36365,-0.465728 -1.078192,-0.714541 z"
         style="font-size:13.0659px"
         id="path1630" />
      <path
         d="m -71.759733,36.859876 -1.773593,-0.338132 q 0.318991,-0.669882 0.484867,-1.333385 0.165876,-0.663503 0.165876,-1.256827 0,-0.676263 -0.178636,-1.046293 -0.172255,-0.36365 -0.497627,-0.36365 -0.191395,0 -0.306232,0.204154 -0.114837,0.204155 -0.242433,0.803859 l -0.07656,0.41469 q -0.293473,1.384423 -0.759201,1.939469 -0.459348,0.555046 -1.282346,0.555046 -1.244068,0 -1.94585,-0.976115 -0.695402,-0.976115 -0.695402,-2.730569 0,-0.733681 0.114837,-1.499261 0.114837,-0.76558 0.344512,-1.563059 l 1.792733,0.344511 q -0.363651,0.618844 -0.548666,1.320625 -0.185015,0.708162 -0.185015,1.448223 0,0.720921 0.172255,1.084572 0.172256,0.36365 0.504007,0.36365 0.229674,0 0.357271,-0.204155 0.127597,-0.204154 0.261573,-0.842138 l 0.07656,-0.414689 q 0.255194,-1.224928 0.752821,-1.748074 0.497627,-0.523147 1.378044,-0.523147 1.193029,0 1.837392,0.899557 0.644363,0.905936 0.644363,2.583833 0,0.73368 -0.102077,1.441842 -0.0957,0.714541 -0.293473,1.435463 z"
         style="font-size:13.0659px"
         id="path1632" />
      <path
         d="m -69.507651,42.021161 -2.028787,-0.38917 v 2.33502 l -1.633238,-0.325372 V 41.30662 l -3.024041,-0.586945 q -0.102077,-0.02552 -0.172256,-0.03828 -0.07018,-0.0064 -0.133976,-0.0064 -0.293473,0 -0.421069,0.191395 -0.127597,0.197775 -0.127597,0.657123 v 1.18027 l -1.633237,-0.325372 v -1.92033 q 0,-1.033533 0.433828,-1.575819 0.433829,-0.542286 1.250448,-0.542286 0.178635,0 0.38279,0.01914 0.204155,0.01914 0.414689,0.05742 l 3.030421,0.586945 v -1.122851 l 1.633238,0.312612 v 1.13561 l 2.028787,0.39555 z"
         style="font-size:13.0659px"
         id="path1634" />
      <path
         d="m -72.99742,48.464793 q 0,-0.886797 -0.803859,-1.460982 -0.803859,-0.574185 -2.047927,-0.574185 -0.676262,0 -1.033533,0.306232 -0.350891,0.312612 -0.350891,0.905937 0,0.886797 0.803859,1.460982 0.810239,0.574185 2.060686,0.574185 0.669883,0 1.020774,-0.312612 0.350891,-0.306232 0.350891,-0.899557 z m 1.633237,0.185016 q 0,1.594958 -0.810239,2.507274 -0.810239,0.912317 -2.207422,0.912317 -0.810239,0 -1.575819,-0.287093 -0.7592,-0.287093 -1.390804,-0.835758 -0.75282,-0.650743 -1.13561,-1.53754 -0.382791,-0.886797 -0.382791,-1.977749 0,-1.575819 0.810239,-2.488135 0.810239,-0.905936 2.207423,-0.905936 0.803859,0 1.569439,0.293472 0.77196,0.293472 1.409943,0.842138 0.740061,0.637983 1.122851,1.518401 0.38279,0.886796 0.38279,1.958609 z"
         style="font-size:13.0659px"
         id="path1636" />
      <path
         d="m -73.482288,59.259471 q 0.133977,-0.236054 0.204155,-0.523146 0.07018,-0.287093 0.07018,-0.618844 0,-0.874037 -0.561425,-1.454602 -0.561426,-0.574185 -1.620478,-0.77834 l -3.291994,-0.650743 v -2.29036 l 7.145414,1.390803 v 2.296741 l -1.224928,-0.248814 q 0.676262,0.452968 1.033533,1.129231 0.36365,0.682642 0.36365,1.51202 0,0.121217 -0.01276,0.274333 -0.01276,0.153116 -0.03828,0.363651 z"
         style="font-size:13.0659px"
         id="path1638" />
      <path
         d="m -69.15676,61.741228 h -3.540808 v -1.51202 h 3.540808 z"
         style="font-size:13.0659px"
         id="path1640" />
      <path
         d="m -71.759733,70.302962 -1.773593,-0.338131 q 0.318991,-0.669883 0.484867,-1.333385 0.165876,-0.663503 0.165876,-1.256828 0,-0.676262 -0.178636,-1.046292 -0.172255,-0.363651 -0.497627,-0.363651 -0.191395,0 -0.306232,0.204155 -0.114837,0.204155 -0.242433,0.803859 l -0.07656,0.414689 q -0.293473,1.384424 -0.759201,1.93947 -0.459348,0.555045 -1.282346,0.555045 -1.244068,0 -1.94585,-0.976114 -0.695402,-0.976115 -0.695402,-2.730569 0,-0.733681 0.114837,-1.499261 0.114837,-0.76558 0.344512,-1.56306 l 1.792733,0.344511 q -0.363651,0.618844 -0.548666,1.320626 -0.185015,0.708162 -0.185015,1.448222 0,0.720922 0.172255,1.084572 0.172256,0.363651 0.504007,0.363651 0.229674,0 0.357271,-0.204155 0.127597,-0.204155 0.261573,-0.842138 l 0.07656,-0.414689 q 0.255194,-1.224928 0.752821,-1.748075 0.497627,-0.523146 1.378044,-0.523146 1.193029,0 1.837392,0.899556 0.644363,0.905937 0.644363,2.583833 0,0.733681 -0.102077,1.441843 -0.0957,0.714541 -0.293473,1.435462 z"
         style="font-size:13.0659px"
         id="path1642" />
      <path
         d="m -71.013292,79.547346 -5.812029,-1.14199 v 0.880417 q 0,1.716175 0.963355,2.717809 0.963355,1.001634 2.602972,1.001634 1.110092,0 1.677897,-0.657123 0.567805,-0.650743 0.567805,-1.939469 z m 1.856532,-2.105345 v 2.583833 q 0,1.850152 -0.223294,2.775228 -0.216915,0.925075 -0.733681,1.53754 -0.516767,0.618843 -1.256828,0.931455 -0.733681,0.312612 -1.665136,0.312612 -1.295107,0 -2.443477,-0.535906 -1.14199,-0.529526 -1.92033,-1.492881 -0.695402,-0.842138 -0.988874,-1.958609 -0.293472,-1.110091 -0.293472,-3.419591 v -2.590213 z"
         style="font-size:13.0659px"
         id="path1644" />
      <path
         d="m -73.482288,92.87482 q 0.133977,-0.236054 0.204155,-0.523146 0.07018,-0.287093 0.07018,-0.618844 0,-0.874037 -0.561425,-1.454602 -0.561426,-0.574185 -1.620478,-0.77834 l -3.291994,-0.650743 v -2.290361 l 7.145414,1.390804 v 2.29674 l -1.224928,-0.248813 q 0.676262,0.452968 1.033533,1.129231 0.36365,0.682642 0.36365,1.51202 0,0.121217 -0.01276,0.274333 -0.01276,0.153116 -0.03828,0.363651 z"
         style="font-size:13.0659px"
         id="path1646" />
      <path
         d="m -75.377098,100.81771 -0.363651,-0.0766 v -5.346301 q -0.03828,0 -0.114837,-0.0064 -0.07018,-0.0064 -0.108457,-0.0064 -0.695402,0 -1.039913,0.414689 -0.344511,0.421069 -0.344511,1.256827 0,0.720922 0.216914,1.518401 0.216915,0.803859 0.644364,1.684274 l -1.773594,-0.350889 q -0.306232,-0.835758 -0.452969,-1.665136 -0.153116,-0.822999 -0.153116,-1.677897 0,-1.671516 0.77196,-2.583833 0.77196,-0.905936 2.181904,-0.905936 0.816618,0 1.582198,0.287093 0.77196,0.293472 1.409944,0.848517 0.76558,0.657123 1.161129,1.56944 0.39555,0.918696 0.39555,2.035167 0,1.448222 -0.77196,2.296744 -0.77196,0.85489 -2.079826,0.85489 -0.255193,0 -0.542285,-0.0383 -0.280713,-0.0319 -0.618844,-0.10845 z m 1.046292,-2.156386 q 0.08294,0.01914 0.165876,0.02552 0.08932,0.01276 0.172256,0.01276 0.510386,0 0.810238,-0.306232 0.299853,-0.306232 0.299853,-0.829379 0,-0.669882 -0.370031,-1.14199 -0.36365,-0.465728 -1.078192,-0.714542 z"
         style="font-size:13.0659px"
         id="path1648" />
      <path
         d="m -75.466416,105.76208 q 0,-0.85489 -0.267953,-1.2951 -0.261573,-0.43383 -0.77834,-0.43383 -0.38917,0 -0.612464,0.25519 -0.223294,0.26158 -0.223294,0.71454 0,0.70179 0.421069,1.17389 0.427449,0.47211 1.199409,0.63161 l 0.261573,0.051 z m 0.861278,3.56633 -4.076714,-0.79748 v -2.28398 l 1.059052,0.1914 q -0.637983,-0.56143 -0.944215,-1.18665 -0.299853,-0.62523 -0.299853,-1.35891 0,-1.01439 0.523147,-1.61409 0.529526,-0.59333 1.422703,-0.59333 1.365284,0 2.086206,1.05267 0.727301,1.05906 0.727301,3.04956 v 1.34615 l 0.178635,0.0255 q 0.08932,0.0191 0.127597,0.0191 0.03828,0.006 0.07018,0.006 0.421069,0 0.631603,-0.40193 0.216915,-0.39555 0.216915,-1.18027 0,-0.70816 -0.146736,-1.37167 -0.146737,-0.6635 -0.440209,-1.28234 l 1.741695,0.34451 q 0.178635,0.71454 0.267953,1.46098 0.0957,0.75282 0.0957,1.55668 0,1.58858 -0.548666,2.36054 -0.542285,0.77196 -1.658756,0.77196 -0.216915,0 -0.478488,-0.0319 -0.255193,-0.0255 -0.555045,-0.0829 z"
         style="font-size:13.0659px"
         id="path1650" />
      <path
         d="m -72.723087,118.47071 q 0.657122,0.52952 1.008013,1.19941 0.350891,0.67626 0.350891,1.40356 0,0.95698 -0.529526,1.50564 -0.523146,0.55505 -1.441843,0.55505 -0.191395,0 -0.440208,-0.0319 -0.242434,-0.0255 -0.555046,-0.0829 l -4.351046,-0.84852 v -2.30312 l 3.725823,0.72092 0.0957,0.0191 q 0.7911,0.16588 1.014394,0.16588 0.350891,0 0.555045,-0.20416 0.204155,-0.19777 0.204155,-0.54228 0,-0.65713 -0.542286,-1.11647 -0.535906,-0.45297 -1.53754,-0.65075 l -3.515288,-0.68902 v -2.30312 l 3.725823,0.73368 q 0.478487,0.0957 0.720921,0.13398 0.248813,0.0383 0.38917,0.0383 0.35727,0 0.555045,-0.19778 0.204155,-0.19777 0.204155,-0.54866 0,-0.63161 -0.561425,-1.11009 -0.555046,-0.47211 -1.518401,-0.65713 l -3.515288,-0.68902 v -2.29036 l 7.145414,1.3908 v 2.29675 l -1.046293,-0.21054 q 0.606084,0.53591 0.912316,1.14199 0.306232,0.60609 0.306232,1.26321 0,0.74006 -0.38279,1.26958 -0.37641,0.52953 -0.976114,0.63799 z"
         style="font-size:13.0659px"
         id="path1652" />
    </g>
  </g>
</svg>
