<?xml version="1.0" encoding="UTF-8" standalone="no"?>
<!-- Created with Inkscape (http://www.inkscape.org/) -->

<svg
   width="249.903mm"
   height="39.687485mm"
   viewBox="0 0 249.903 39.687485"
   version="1.1"
   id="svg5"
   inkscape:version="1.2.2 (732a01da63, 2022-12-09)"
   sodipodi:docname="logotype_id_dark_150.svg"
   inkscape:export-filename="logo-150.png"
   inkscape:export-xdpi="4"
   inkscape:export-ydpi="4"
   xmlns:inkscape="http://www.inkscape.org/namespaces/inkscape"
   xmlns:sodipodi="http://sodipodi.sourceforge.net/DTD/sodipodi-0.dtd"
   xmlns="http://www.w3.org/2000/svg"
   xmlns:svg="http://www.w3.org/2000/svg">
  <sodipodi:namedview
     id="namedview7"
     pagecolor="#505050"
     bordercolor="#ffffff"
     borderopacity="1"
     inkscape:showpageshadow="0"
     inkscape:pageopacity="0"
     inkscape:pagecheckerboard="1"
     inkscape:deskcolor="#505050"
     inkscape:document-units="mm"
     showgrid="false"
     inkscape:zoom="1.6819304"
     inkscape:cx="473.86027"
     inkscape:cy="100.47978"
     inkscape:window-width="2880"
     inkscape:window-height="1514"
     inkscape:window-x="-11"
     inkscape:window-y="-11"
     inkscape:window-maximized="1"
     inkscape:current-layer="layer1" />
  <defs
     id="defs2">
    <inkscape:path-effect
       effect="fillet_chamfer"
       id="path-effect1570"
       is_visible="true"
       lpeversion="1"
       nodesatellites_param="F,0,0,1,0,9.525,0,1 @ F,0,0,1,0,9.525,0,1 @ F,0,0,1,0,9.525,0,1 @ F,0,0,1,0,9.525,0,1"
       unit="px"
       method="auto"
       mode="F"
       radius="36"
       chamfer_steps="1"
       flexible="false"
       use_knot_distance="true"
       apply_no_radius="true"
       apply_with_radius="true"
       only_selected="false"
       hide_knots="false" />
  </defs>
  <g
     inkscape:label="Layer 1"
     inkscape:groupmode="layer"
     id="layer1"
     transform="translate(26.807428,-61.904611)">
    <g
       aria-label="D"
       transform="rotate(-90)"
       id="text2404"
       style="font-style:italic;font-weight:bold;font-size:43.5529px;-inkscape-font-specification:'sans-serif, Bold Italic';writing-mode:vertical-lr;direction:rtl;fill:#00bc8c;stroke-width:0.136103">
      <path
         d="m -72.040388,-13.601202 -19.373384,-3.806625 v 2.934716 q 0,5.7205715 3.211175,9.0593435 3.211176,3.338772 8.676554,3.338772 3.700296,0 5.592975,-2.1904046 1.89268,-2.1691385 1.89268,-6.4648829 z m 6.188424,-7.017801 v 8.612756 q 0,6.1671582 -0.744312,9.2507375 -0.723046,3.08357919 -2.445597,5.1251213 -1.722551,2.0628082 -4.189415,3.1048453 -2.445597,1.0420371 -5.550442,1.0420371 -4.317011,0 -8.144903,-1.7863493 -3.806625,-1.7650833 -6.401085,-4.97625893 -2.318001,-2.80712037 -3.29624,-6.52868157 -0.978239,-3.7002954 -0.978239,-11.3986104 v -8.634022 z"
         id="path251" />
    </g>
    <g
       aria-label="I"
       transform="rotate(-90)"
       id="text2404-31"
       style="font-style:italic;font-size:54.4407px;-inkscape-font-specification:'sans-serif, Italic';writing-mode:vertical-lr;direction:rtl;fill:#00bc8c;stroke-width:0.170127">
      <path
         d="m -61.904611,-7.7538605 v 5.3962218 l -39.687479,-7.7354703 v -5.396222 z"
         id="path254" />
    </g>
    <g
       aria-label="Investor's Dream"
       transform="rotate(-90)"
       id="text2404-3"
       style="font-style:italic;font-weight:bold;font-size:43.5529px;-inkscape-font-specification:'sans-serif, Bold Italic';writing-mode:vertical-lr;direction:rtl;fill:#00bc8c;stroke-width:0.136103">
      <path
         d="m -73.99158,18.091171 v 4.093708 l -15.87508,-3.094206 v -4.093707 z"
         style="font-size:21.7764px"
         id="path257" />
      <path
         d="m -82.614949,36.688301 -7.251711,-1.41419 v -3.817249 l 6.209676,1.20153 q 0.606082,0.127596 1.020769,0.191394 0.42532,0.07443 0.66988,0.07443 0.680512,0 1.052667,-0.382789 0.372156,-0.372155 0.372156,-1.0633 0,-1.180264 -0.925072,-2.030905 -0.914439,-0.840007 -2.541289,-1.169631 l -5.858787,-1.148364 v -3.81725 l 11.908968,2.317995 v 3.827883 l -1.743813,-0.350889 q 1.031402,1.052668 1.531153,2.115968 0.499752,1.063301 0.499752,2.222299 0,1.648116 -0.861274,2.541289 -0.861274,0.893173 -2.424326,0.893173 -0.340256,0 -0.754943,-0.05316 -0.414688,-0.04253 -0.903806,-0.13823 z"
         style="font-size:21.7764px"
         id="path259" />
      <path
         d="m -77.957692,39.516682 v 3.508893 l -8.315012,1.541786 8.315012,4.487129 v 3.859782 L -89.86666,45.917753 v -4.02991 z"
         style="font-size:21.7764px"
         id="path261" />
      <path
         d="m -84.358762,66.035403 -0.606082,-0.127597 v -8.91046 q -0.0638,0 -0.191394,-0.01063 -0.116963,-0.01063 -0.180761,-0.01063 -1.158998,0 -1.73318,0.691146 -0.574183,0.701778 -0.574183,2.094702 0,1.20153 0.361523,2.530656 0.361522,1.339759 1.073934,2.807114 l -2.955977,-0.584816 q -0.510384,-1.392924 -0.754943,-2.775215 -0.255192,-1.371657 -0.255192,-2.796481 0,-2.785848 1.286594,-4.306368 1.286594,-1.509887 3.636488,-1.509887 1.361025,0 2.636986,0.478486 1.286594,0.489118 2.349895,1.41419 1.275961,1.095199 1.935207,2.61572 0.659247,1.531153 0.659247,3.391929 0,2.413693 -1.286594,3.827883 -1.286594,1.424823 -3.466361,1.424823 -0.42532,0 -0.903805,-0.0638 -0.467853,-0.05317 -1.031402,-0.180761 z m 1.743813,-3.593957 q 0.138229,0.0319 0.276458,0.04253 0.148862,0.02127 0.287091,0.02127 0.850641,0 1.350392,-0.510384 0.499752,-0.510385 0.499752,-1.382291 0,-1.116466 -0.616715,-1.903309 -0.606081,-0.776209 -1.796978,-1.190897 z"
         style="font-size:21.7764px"
         id="path263" />
      <path
         d="m -78.329847,79.305397 -2.955976,-0.563549 q 0.53165,-1.116466 0.808109,-2.222299 0.276458,-1.105832 0.276458,-2.094702 0,-1.127099 -0.297724,-1.743813 -0.287092,-0.606082 -0.829375,-0.606082 -0.31899,0 -0.510384,0.340257 -0.191394,0.340256 -0.404055,1.339758 l -0.127596,0.691146 q -0.489118,2.307363 -1.265328,3.232434 -0.765576,0.925072 -2.137234,0.925072 -2.073437,0 -3.243068,-1.62685 -1.158997,-1.62685 -1.158997,-4.550927 0,-1.222796 0.191394,-2.498757 0.191394,-1.275961 0.574182,-2.605087 l 2.987875,0.574182 q -0.606081,1.031402 -0.914438,2.201033 -0.308358,1.180264 -0.308358,2.413693 0,1.201529 0.287092,1.807611 0.287091,0.606081 0.840007,0.606081 0.382789,0 0.595449,-0.340256 0.21266,-0.340256 0.435953,-1.403557 l 0.127596,-0.691145 q 0.42532,-2.041538 1.254695,-2.913445 0.829375,-0.871906 2.29673,-0.871906 1.988372,0 3.062306,1.499254 1.073934,1.509887 1.073934,4.306368 0,1.222796 -0.170128,2.40306 -0.159496,1.190897 -0.489119,2.392426 z"
         style="font-size:21.7764px"
         id="path265" />
      <path
         d="m -74.576395,87.9075 -3.381297,-0.648614 v 3.891681 l -2.72205,-0.542283 v -3.891681 l -5.040045,-0.978237 q -0.170128,-0.04253 -0.287091,-0.0638 -0.116963,-0.01063 -0.223294,-0.01063 -0.489118,0 -0.701778,0.318991 -0.21266,0.329623 -0.21266,1.095199 v 1.967107 l -2.72205,-0.542284 v -3.200535 q 0,-1.722547 0.723044,-2.626353 0.723045,-0.903805 2.08407,-0.903805 0.297724,0 0.63798,0.0319 0.340257,0.0319 0.691146,0.0957 l 5.050678,0.978236 v -1.871409 l 2.72205,0.521017 v 1.892676 l 3.381297,0.659246 z"
         style="font-size:21.7764px"
         id="path267" />
      <path
         d="m -80.39265,98.646837 q 0,-1.477988 -1.339759,-2.434959 -1.339759,-0.956971 -3.413196,-0.956971 -1.127099,0 -1.722547,0.510385 -0.584815,0.521017 -0.584815,1.509887 0,1.477988 1.339759,2.434959 1.350392,0.956972 3.434461,0.956972 1.116466,0 1.701281,-0.52102 0.584816,-0.510383 0.584816,-1.499253 z m 2.72205,0.308357 q 0,2.658256 -1.350392,4.178776 -1.350392,1.52052 -3.679021,1.52052 -1.350392,0 -2.626353,-0.47849 -1.265328,-0.47848 -2.317996,-1.39292 -1.254694,-1.08457 -1.892675,-2.56256 -0.63798,-1.477986 -0.63798,-3.29623 0,-2.626353 1.350392,-4.146873 1.350392,-1.509887 3.67902,-1.509887 1.339759,0 2.61572,0.489118 1.286594,0.489118 2.349895,1.403557 1.233429,1.063301 1.871409,2.530656 0.637981,1.477988 0.637981,3.264333 z"
         style="font-size:21.7764px"
         id="path269" />
      <path
         d="m -81.200759,116.63788 q 0.223293,-0.39342 0.340256,-0.8719 0.116963,-0.47849 0.116963,-1.0314 0,-1.45673 -0.935704,-2.42433 -0.935705,-0.95697 -2.700784,-1.29723 l -5.486632,-1.08456 v -3.81725 l 11.908968,2.31799 v 3.82788 l -2.041537,-0.41468 q 1.127099,0.75494 1.722547,1.88204 0.606082,1.13773 0.606082,2.52002 0,0.20203 -0.02127,0.45722 -0.02127,0.25519 -0.0638,0.60608 z"
         style="font-size:21.7764px"
         id="path271" />
      <path
         d="m -73.99158,120.77413 h -5.901319 v -2.52002 h 5.901319 z"
         style="font-size:21.7764px"
         id="path273" />
      <path
         d="m -78.329847,135.04362 -2.955976,-0.56355 q 0.53165,-1.11646 0.808109,-2.2223 0.276458,-1.10583 0.276458,-2.0947 0,-1.1271 -0.297724,-1.74381 -0.287092,-0.60608 -0.829375,-0.60608 -0.31899,0 -0.510384,0.34025 -0.191394,0.34026 -0.404055,1.33976 l -0.127596,0.69115 q -0.489118,2.30736 -1.265328,3.23243 -0.765576,0.92507 -2.137234,0.92507 -2.073437,0 -3.243068,-1.62685 -1.158997,-1.62685 -1.158997,-4.55092 0,-1.2228 0.191394,-2.49876 0.191394,-1.27596 0.574182,-2.60509 l 2.987875,0.57418 q -0.606081,1.03141 -0.914438,2.20104 -0.308358,1.18026 -0.308358,2.41369 0,1.20153 0.287092,1.80761 0.287091,0.60608 0.840007,0.60608 0.382789,0 0.595449,-0.34025 0.21266,-0.34026 0.435953,-1.40356 l 0.127596,-0.69115 q 0.42532,-2.04153 1.254695,-2.91344 0.829375,-0.87191 2.29673,-0.87191 1.988372,0 3.062306,1.49926 1.073934,1.50988 1.073934,4.30637 0,1.22279 -0.170128,2.40305 -0.159496,1.1909 -0.489119,2.39243 z"
         style="font-size:21.7764px"
         id="path275" />
      <path
         d="m -77.085785,150.45085 -9.68667,-1.90331 v 1.46735 q 0,2.86028 1.605584,4.52967 1.605584,1.66938 4.338267,1.66938 1.850144,0 2.796481,-1.0952 0.946338,-1.08457 0.946338,-3.23244 z m 3.094205,-3.50889 v 4.30636 q 0,3.08358 -0.372155,4.62536 -0.361522,1.54179 -1.222796,2.56256 -0.861273,1.0314 -2.094702,1.55242 -1.222796,0.52101 -2.775215,0.52101 -2.158501,0 -4.072442,-0.89317 -1.903309,-0.88254 -3.200536,-2.48812 -1.158997,-1.40356 -1.648116,-3.26434 -0.489118,-1.85014 -0.489118,-5.69929 v -4.317 z"
         style="font-size:21.7764px"
         id="path277" />
      <path
         d="m -81.200759,172.6632 q 0.223293,-0.39342 0.340256,-0.87191 0.116963,-0.47848 0.116963,-1.0314 0,-1.45672 -0.935704,-2.42433 -0.935705,-0.95697 -2.700784,-1.29722 l -5.486632,-1.08457 v -3.81725 l 11.908968,2.318 v 3.82788 l -2.041537,-0.41469 q 1.127099,0.75495 1.722547,1.88204 0.606082,1.13774 0.606082,2.52003 0,0.20202 -0.02127,0.45722 -0.02127,0.25519 -0.0638,0.60608 z"
         style="font-size:21.7764px"
         id="path279" />
      <path
         d="m -84.358762,185.9013 -0.606082,-0.12759 v -8.91046 q -0.0638,0 -0.191394,-0.0106 -0.116963,-0.0106 -0.180761,-0.0106 -1.158998,0 -1.73318,0.69115 -0.574183,0.70178 -0.574183,2.0947 0,1.20153 0.361523,2.53066 0.361522,1.33975 1.073934,2.80711 l -2.955977,-0.58482 q -0.510384,-1.39292 -0.754943,-2.77521 -0.255192,-1.37166 -0.255192,-2.79648 0,-2.78585 1.286594,-4.30637 1.286594,-1.50989 3.636488,-1.50989 1.361025,0 2.636986,0.47849 1.286594,0.48912 2.349895,1.41419 1.275961,1.0952 1.935207,2.61572 0.659247,1.53115 0.659247,3.39193 0,2.41369 -1.286594,3.82788 -1.286594,1.42482 -3.466361,1.42482 -0.42532,0 -0.903805,-0.0638 -0.467853,-0.0532 -1.031402,-0.18077 z m 1.743813,-3.59395 q 0.138229,0.0319 0.276458,0.0425 0.148862,0.0213 0.287091,0.0213 0.850641,0 1.350392,-0.51039 0.499752,-0.51038 0.499752,-1.38229 0,-1.11647 -0.616715,-1.90331 -0.606081,-0.77621 -1.796978,-1.19089 z"
         style="font-size:21.7764px"
         id="path281" />
      <path
         d="m -84.507624,194.14188 q 0,-1.42482 -0.446587,-2.1585 -0.435953,-0.72305 -1.297227,-0.72305 -0.648613,0 -1.020768,0.42532 -0.372156,0.43596 -0.372156,1.1909 0,1.16963 0.701779,1.95647 0.712411,0.78685 1.999005,1.05267 l 0.435954,0.0851 z m 1.435456,5.94385 -6.794492,-1.32913 v -3.80661 l 1.765079,0.31899 q -1.063301,-0.93571 -1.573685,-1.97774 -0.499751,-1.04204 -0.499751,-2.26483 0,-1.69065 0.871906,-2.69015 0.88254,-0.98887 2.371161,-0.98887 2.275464,0 3.476993,1.75444 1.212163,1.76508 1.212163,5.08258 v 2.24357 l 0.297725,0.0425 q 0.148862,0.0319 0.21266,0.0319 0.0638,0.0106 0.116963,0.0106 0.701778,0 1.052668,-0.66988 0.361522,-0.65925 0.361522,-1.96711 0,-1.18026 -0.244559,-2.28609 -0.24456,-1.10584 -0.733678,-2.13724 l 2.902811,0.57419 q 0.297724,1.19089 0.446587,2.43495 0.159495,1.2547 0.159495,2.59446 0,2.64762 -0.914439,3.93421 -0.903806,1.28659 -2.764582,1.28659 -0.361522,0 -0.797476,-0.0532 -0.42532,-0.0425 -0.925071,-0.13823 z"
         style="font-size:21.7764px"
         id="path283" />
      <path
         d="m -79.935431,215.32284 q 1.0952,0.88254 1.680015,1.999 0.584816,1.1271 0.584816,2.33927 0,1.59495 -0.88254,2.50938 -0.871907,0.92508 -2.40306,0.92508 -0.31899,0 -0.733677,-0.0532 -0.404055,-0.0425 -0.925072,-0.13823 l -7.251711,-1.41419 v -3.83851 l 6.209676,1.20153 0.159495,0.0319 q 1.318493,0.27645 1.690649,0.27645 0.584815,0 0.925071,-0.34025 0.340257,-0.32963 0.340257,-0.90381 0,-1.0952 -0.903806,-1.86077 -0.893173,-0.75495 -2.562555,-1.08457 l -5.858787,-1.14837 v -3.83851 l 6.209676,1.22279 q 0.797476,0.1595 1.20153,0.2233 0.414687,0.0638 0.648614,0.0638 0.595448,0 0.925071,-0.32963 0.340257,-0.32962 0.340257,-0.91444 0,-1.05266 -0.935705,-1.85014 -0.925072,-0.78684 -2.530656,-1.0952 l -5.858787,-1.14836 v -3.81725 l 11.908968,2.31799 v 3.82788 l -1.743813,-0.35089 q 1.010136,0.89318 1.52052,1.90331 0.510385,1.01014 0.510385,2.10534 0,1.23343 -0.637981,2.11597 -0.627347,0.88254 -1.62685,1.0633 z"
         style="font-size:21.7764px"
         id="path285" />
    </g>
  </g>
</svg>
