<?xml version="1.0" encoding="UTF-8" standalone="no"?>
<!-- Created with Inkscape (http://www.inkscape.org/) -->

<svg
   width="56.506184mm"
   height="7.9374952mm"
   viewBox="0 0 56.506184 7.9374952"
   version="1.1"
   id="svg5"
   inkscape:version="1.2.2 (732a01da63, 2022-12-09)"
   sodipodi:docname="logotype_light_30.svg"
   inkscape:export-filename="logo-150.png"
   inkscape:export-xdpi="4"
   inkscape:export-ydpi="4"
   xmlns:inkscape="http://www.inkscape.org/namespaces/inkscape"
   xmlns:sodipodi="http://sodipodi.sourceforge.net/DTD/sodipodi-0.dtd"
   xmlns="http://www.w3.org/2000/svg"
   xmlns:svg="http://www.w3.org/2000/svg">
  <sodipodi:namedview
     id="namedview7"
     pagecolor="#505050"
     bordercolor="#ffffff"
     borderopacity="1"
     inkscape:showpageshadow="0"
     inkscape:pageopacity="0"
     inkscape:pagecheckerboard="1"
     inkscape:deskcolor="#505050"
     inkscape:document-units="mm"
     showgrid="false"
     inkscape:zoom="6.7277216"
     inkscape:cx="114.30318"
     inkscape:cy="43.402509"
     inkscape:window-width="2880"
     inkscape:window-height="1514"
     inkscape:window-x="-11"
     inkscape:window-y="-11"
     inkscape:window-maximized="1"
     inkscape:current-layer="layer1" />
  <defs
     id="defs2">
    <inkscape:path-effect
       effect="fillet_chamfer"
       id="path-effect1570"
       is_visible="true"
       lpeversion="1"
       nodesatellites_param="F,0,0,1,0,9.525,0,1 @ F,0,0,1,0,9.525,0,1 @ F,0,0,1,0,9.525,0,1 @ F,0,0,1,0,9.525,0,1"
       unit="px"
       method="auto"
       mode="F"
       radius="36"
       chamfer_steps="1"
       flexible="false"
       use_knot_distance="true"
       apply_no_radius="true"
       apply_with_radius="true"
       only_selected="false"
       hide_knots="false" />
  </defs>
  <g
     inkscape:label="Layer 1"
     inkscape:groupmode="layer"
     id="layer1"
     transform="translate(33.246018,-61.904583)">
    <g
       aria-label="C"
       transform="rotate(-90)"
       id="text2404"
       style="font-style:italic;font-weight:bold;font-size:8.71054px;-inkscape-font-specification:'sans-serif, Bold Italic';writing-mode:vertical-lr;direction:rtl;fill:#ffffff;stroke-width:0.0272204">
      <path
         d="m -68.746363,-28.282542 q -0.208406,-0.586941 -0.314736,-1.127096 -0.10633,-0.540156 -0.10633,-1.02502 0,-1.280211 0.701777,-2.045786 0.701777,-0.765574 1.858646,-0.765574 0.761321,0 1.433326,0.242432 0.676257,0.242432 1.233426,0.714536 0.654991,0.557168 1.008007,1.339756 0.353015,0.786841 0.353015,1.692771 0,0.49337 -0.11909,0.990994 -0.114836,0.497623 -0.353015,1.01226 l -1.314237,-0.263698 q 0.310483,-0.408307 0.455092,-0.820866 0.144609,-0.41256 0.144609,-0.884665 0,-0.982487 -0.757069,-1.645985 -0.757068,-0.663499 -1.892671,-0.663499 -0.731549,0 -1.148362,0.408307 -0.416813,0.408307 -0.416813,1.127096 0,0.429573 0.153115,0.910184 0.157368,0.484864 0.489117,1.084564 z"
         id="path1542" />
    </g>
    <g
       aria-label="Investor's Collective"
       transform="rotate(-90)"
       id="text2404-3"
       style="font-style:italic;font-weight:bold;font-size:8.71054px;-inkscape-font-specification:'sans-serif, Bold Italic';writing-mode:vertical-lr;direction:rtl;fill:#ffffff;stroke-width:0.0272204">
      <path
         d="m -64.321979,-25.711101 v 0.81874 l -3.175009,-0.61884 v -0.81874 z"
         style="font-size:4.35527px"
         id="path1545" />
      <path
         d="m -66.046649,-21.991684 -1.450339,-0.282837 v -0.763448 l 1.241932,0.240305 q 0.121216,0.02552 0.204154,0.03828 0.08506,0.01489 0.133975,0.01489 0.136102,0 0.210533,-0.07656 0.07443,-0.07443 0.07443,-0.21266 0,-0.236052 -0.185014,-0.40618 -0.182887,-0.168001 -0.508256,-0.233926 l -1.171755,-0.229672 v -0.763448 l 2.381788,0.463598 v 0.765575 l -0.348762,-0.07018 q 0.20628,0.210533 0.30623,0.423193 0.09995,0.212659 0.09995,0.444458 0,0.329623 -0.172254,0.508257 -0.172254,0.178634 -0.484864,0.178634 -0.06805,0 -0.150989,-0.01063 -0.08294,-0.0085 -0.18076,-0.02765 z"
         style="font-size:4.35527px"
         id="path1547" />
      <path
         d="m -65.1152,-21.426009 v 0.701777 l -1.662999,0.308356 1.662999,0.897424 v 0.771955 l -2.381788,-1.399301 v -0.80598 z"
         style="font-size:4.35527px"
         id="path1549" />
      <path
         d="m -66.395411,-16.122277 -0.121216,-0.02552 v -1.782088 q -0.01276,0 -0.03828,-0.0021 -0.02339,-0.0021 -0.03615,-0.0021 -0.231799,0 -0.346635,0.138228 -0.114836,0.140356 -0.114836,0.41894 0,0.240305 0.0723,0.50613 0.0723,0.267951 0.214786,0.561421 l -0.591194,-0.116962 q -0.102076,-0.278585 -0.150988,-0.555042 -0.05104,-0.274331 -0.05104,-0.559295 0,-0.557168 0.257318,-0.861272 0.257318,-0.301976 0.727296,-0.301976 0.272204,0 0.527396,0.0957 0.257318,0.09782 0.469978,0.282838 0.255191,0.219039 0.38704,0.523143 0.131849,0.30623 0.131849,0.678384 0,0.482737 -0.257318,0.765575 -0.257318,0.284964 -0.693271,0.284964 -0.08506,0 -0.18076,-0.01276 -0.09357,-0.01063 -0.20628,-0.03615 z m 0.348762,-0.71879 q 0.02765,0.0064 0.05529,0.0085 0.02977,0.0043 0.05742,0.0043 0.170128,0 0.270078,-0.102077 0.09995,-0.102076 0.09995,-0.276457 0,-0.223293 -0.123342,-0.380661 -0.121216,-0.155242 -0.359395,-0.238179 z"
         style="font-size:4.35527px"
         id="path1551" />
      <path
         d="m -65.189631,-13.468285 -0.591194,-0.11271 q 0.10633,-0.223292 0.161622,-0.444458 0.05529,-0.221166 0.05529,-0.41894 0,-0.225419 -0.05954,-0.348762 -0.05742,-0.121216 -0.165874,-0.121216 -0.0638,0 -0.102077,0.06805 -0.03828,0.06805 -0.08081,0.267952 l -0.02552,0.138228 q -0.09782,0.461472 -0.253065,0.646486 -0.153115,0.185014 -0.427445,0.185014 -0.414687,0 -0.648612,-0.32537 -0.231799,-0.325369 -0.231799,-0.910183 0,-0.244559 0.03828,-0.49975 0.03828,-0.255192 0.114836,-0.521016 l 0.597574,0.114836 q -0.121216,0.20628 -0.182887,0.440205 -0.06167,0.236053 -0.06167,0.482738 0,0.240305 0.05742,0.361521 0.05742,0.121216 0.168001,0.121216 0.07656,0 0.119089,-0.06805 0.04253,-0.06805 0.08719,-0.280711 l 0.02552,-0.138228 q 0.08506,-0.408307 0.250938,-0.582688 0.165875,-0.174381 0.459345,-0.174381 0.397674,0 0.61246,0.29985 0.214786,0.301977 0.214786,0.861272 0,0.244559 -0.03402,0.480611 -0.0319,0.238179 -0.09782,0.478484 z"
         style="font-size:4.35527px"
         id="path1553" />
      <path
         d="m -64.438942,-11.747868 -0.676258,-0.129723 v 0.778335 l -0.544409,-0.108457 v -0.778334 l -1.008006,-0.195647 q -0.03403,-0.0085 -0.05742,-0.01276 -0.02339,-0.0021 -0.04466,-0.0021 -0.09782,0 -0.140356,0.0638 -0.04253,0.06592 -0.04253,0.219039 v 0.393421 l -0.544409,-0.108457 v -0.640105 q 0,-0.344509 0.144608,-0.52527 0.144609,-0.18076 0.416813,-0.18076 0.05954,0 0.127596,0.0064 0.06805,0.0064 0.138229,0.01914 l 1.010133,0.195647 v -0.374281 l 0.544409,0.104203 v 0.378534 l 0.676258,0.131849 z"
         style="font-size:4.35527px"
         id="path1555" />
      <path
         d="m -65.602191,-9.600005 q 0,-0.2955969 -0.267951,-0.486991 -0.267951,-0.191393 -0.682637,-0.191393 -0.22542,0 -0.344509,0.102076 -0.116963,0.104204 -0.116963,0.301977 0,0.295597 0.267951,0.4869907 0.270078,0.1913937 0.686891,0.1913937 0.223293,0 0.340256,-0.1042033 0.116962,-0.1020766 0.116962,-0.2998501 z m 0.544409,0.061671 q 0,0.5316492 -0.270078,0.8357525 -0.270077,0.3041033 -0.735802,0.3041033 -0.270078,0 -0.525269,-0.095697 -0.253065,-0.095697 -0.463598,-0.2785842 -0.250939,-0.2169129 -0.378535,-0.5125098 -0.127595,-0.2955969 -0.127595,-0.659245 0,-0.5252693 0.270077,-0.8293723 0.270078,-0.301977 0.735803,-0.301977 0.267951,0 0.523143,0.09782 0.257318,0.09782 0.469977,0.280711 0.246686,0.21266 0.374281,0.50613 0.127596,0.2955971 0.127596,0.6528653 z"
         style="font-size:4.35527px"
         id="path1557" />
      <path
         d="m -65.763812,-6.0018033 q 0.04466,-0.078684 0.06805,-0.1743809 0.02339,-0.095697 0.02339,-0.2062799 0,-0.2913437 -0.187141,-0.484864 -0.18714,-0.1913937 -0.540155,-0.2594448 l -1.097324,-0.2169128 v -0.7634482 l 2.381788,0.463598 v 0.7655748 l -0.408306,-0.082937 q 0.225419,0.1509883 0.344508,0.3764076 0.121216,0.2275458 0.121216,0.5040034 0,0.040405 -0.0043,0.091444 -0.0043,0.051038 -0.01276,0.121216 z"
         style="font-size:4.35527px"
         id="path1559" />
      <path
         d="m -64.321979,-5.1745583 h -1.180262 v -0.5040034 h 1.180262 z"
         style="font-size:4.35527px"
         id="path1561" />
      <path
         d="m -65.189631,-2.3206658 -0.591194,-0.1127096 q 0.10633,-0.2232926 0.161622,-0.4444587 0.05529,-0.221166 0.05529,-0.4189395 0,-0.2254193 -0.05954,-0.3487619 -0.05742,-0.121216 -0.165874,-0.121216 -0.0638,0 -0.102077,0.068051 -0.03828,0.068051 -0.08081,0.2679512 l -0.02552,0.1382288 q -0.09782,0.4614714 -0.253065,0.6464854 -0.153115,0.1850139 -0.427445,0.1850139 -0.414687,0 -0.648612,-0.3253693 -0.231799,-0.3253693 -0.231799,-0.9101834 0,-0.2445586 0.03828,-0.4997502 0.03828,-0.2551916 0.114836,-0.5210162 l 0.597574,0.1148362 q -0.121216,0.2062799 -0.182887,0.4402055 -0.06167,0.2360523 -0.06167,0.4827375 0,0.2403054 0.05742,0.3615214 0.05742,0.121216 0.168001,0.121216 0.07656,0 0.119089,-0.068051 0.04253,-0.068051 0.08719,-0.2807107 l 0.02552,-0.1382288 q 0.08506,-0.4083066 0.250938,-0.5826875 0.165875,-0.1743809 0.459345,-0.1743809 0.397674,0 0.61246,0.2998501 0.214786,0.3019767 0.214786,0.8612717 0,0.2445586 -0.03402,0.4806108 -0.0319,0.2381788 -0.09782,0.4784842 z"
         style="font-size:4.35527px"
         id="path1563" />
      <path
         d="m -67.348126,1.9878197 q -0.104204,-0.2934704 -0.157369,-0.5635481 -0.05316,-0.2700778 -0.05316,-0.51250982 0,-0.64010559 0.350888,-1.02289298 0.350888,-0.3827874 0.929323,-0.3827874 0.38066,0 0.716663,0.12121601 0.338129,0.12121601 0.616713,0.35726824 0.327496,0.27858416 0.504003,0.66987794 0.176508,0.39342041 0.176508,0.84638541 0,0.2466853 -0.05954,0.4954971 -0.05742,0.2488118 -0.176508,0.50613 l -0.657118,-0.131849 q 0.155242,-0.2041533 0.227546,-0.4104332 0.0723,-0.2062799 0.0723,-0.4423321 0,-0.4912438 -0.378534,-0.82299288 -0.378534,-0.33174907 -0.946335,-0.33174907 -0.365775,0 -0.574182,0.20415327 -0.208406,0.20415328 -0.208406,0.56354808 0,0.2147863 0.07656,0.4550917 0.07869,0.242432 0.244559,0.5422822 z"
         style="font-size:4.35527px"
         id="path1565" />
      <path
         d="m -65.602191,4.1782152 q 0,-0.295597 -0.267951,-0.4869906 -0.267951,-0.1913937 -0.682637,-0.1913937 -0.22542,0 -0.344509,0.1020766 -0.116963,0.1042032 -0.116963,0.3019767 0,0.2955969 0.267951,0.4869906 0.270078,0.1913937 0.686891,0.1913937 0.223293,0 0.340256,-0.1042032 0.116962,-0.1020766 0.116962,-0.2998501 z m 0.544409,0.061671 q 0,0.5316491 -0.270078,0.8357525 -0.270077,0.3041033 -0.735802,0.3041033 -0.270078,0 -0.525269,-0.095697 -0.253065,-0.095697 -0.463598,-0.2785841 -0.250939,-0.2169129 -0.378535,-0.5125098 -0.127595,-0.295597 -0.127595,-0.659245 0,-0.5252693 0.270077,-0.8293727 0.270078,-0.3019767 0.735803,-0.3019767 0.267951,0 0.523143,0.097824 0.257318,0.097823 0.469977,0.2807107 0.246686,0.2126597 0.374281,0.50613 0.127596,0.2955969 0.127596,0.6528652 z"
         style="font-size:4.35527px"
         id="path1567" />
      <path
         d="M -64.188004,6.3133175 V 7.0788923 L -67.496988,6.4345335 V 5.6710853 Z"
         style="font-size:4.35527px"
         id="path1569" />
      <path
         d="M -64.188004,7.8061897 V 8.5717645 L -67.496988,7.9274057 V 7.1639575 Z"
         style="font-size:4.35527px"
         id="path1571" />
      <path
         d="m -66.395411,11.261909 -0.121216,-0.02552 V 9.4543016 q -0.01276,0 -0.03828,-0.00213 -0.02339,-0.00213 -0.03615,-0.00213 -0.231799,0 -0.346635,0.1382288 -0.114836,0.1403554 -0.114836,0.4189398 0,0.240305 0.0723,0.50613 0.0723,0.267951 0.214786,0.561421 l -0.591194,-0.116963 q -0.102076,-0.278584 -0.150988,-0.555041 -0.05104,-0.274331 -0.05104,-0.5592952 0,-0.5571683 0.257318,-0.8612717 0.257318,-0.3019767 0.727296,-0.3019767 0.272204,0 0.527396,0.095697 0.257318,0.097823 0.469978,0.2828373 0.255191,0.2190395 0.38704,0.5231428 0.131849,0.3062299 0.131849,0.6783846 0,0.482737 -0.257318,0.765575 -0.257318,0.284963 -0.693271,0.284963 -0.08506,0 -0.18076,-0.01276 -0.09357,-0.01063 -0.20628,-0.03615 z m 0.348762,-0.71879 q 0.02765,0.0064 0.05529,0.0085 0.02977,0.0043 0.05742,0.0043 0.170128,0 0.270078,-0.102077 0.09995,-0.102077 0.09995,-0.276458 0,-0.2232922 -0.123342,-0.3806603 -0.121216,-0.1552416 -0.359395,-0.2381789 z"
         style="font-size:4.35527px"
         id="path1573" />
      <path
         d="m -65.189631,14.007344 -0.620966,-0.121216 q 0.102077,-0.153115 0.155242,-0.301976 0.05316,-0.148862 0.05316,-0.291344 0,-0.372154 -0.250938,-0.608207 -0.248812,-0.236052 -0.637979,-0.236052 -0.248812,0 -0.387041,0.146735 -0.136102,0.146735 -0.136102,0.414687 0,0.178634 0.05317,0.350888 0.05316,0.172254 0.157368,0.327496 l -0.623092,-0.116963 q -0.06592,-0.189267 -0.09782,-0.380661 -0.03402,-0.191393 -0.03402,-0.384914 0,-0.561421 0.250938,-0.865524 0.253065,-0.301977 0.716663,-0.301977 0.291344,0 0.565675,0.110583 0.274331,0.112709 0.49337,0.321116 0.240306,0.231799 0.357268,0.531649 0.116963,0.29985 0.116963,0.691144 0,0.180761 -0.03402,0.359395 -0.0319,0.178634 -0.09782,0.355141 z"
         style="font-size:4.35527px"
         id="path1575" />
      <path
         d="M -64.438942,15.625684 -65.1152,15.495962 v 0.778334 l -0.544409,-0.108456 v -0.778335 l -1.008006,-0.195647 q -0.03403,-0.0085 -0.05742,-0.01276 -0.02339,-0.0021 -0.04466,-0.0021 -0.09782,0 -0.140356,0.0638 -0.04253,0.06593 -0.04253,0.21904 v 0.39342 l -0.544409,-0.108457 v -0.640105 q 0,-0.344509 0.144608,-0.525269 0.144609,-0.180761 0.416813,-0.180761 0.05954,0 0.127596,0.0064 0.06805,0.0064 0.138229,0.01914 l 1.010133,0.195647 v -0.374281 l 0.544409,0.104203 v 0.378534 l 0.676258,0.131849 z"
         style="font-size:4.35527px"
         id="path1577" />
      <path
         d="m -65.1152,16.737896 v 0.765575 l -2.381788,-0.465725 v -0.763448 z m 0.927196,0.178634 v 0.765575 l -0.620966,-0.121216 v -0.767702 z"
         style="font-size:4.35527px"
         id="path1579" />
      <path
         d="M -65.1152,17.907523 V 18.6093 l -1.662999,0.308357 1.662999,0.897424 v 0.771954 l -2.381788,-1.3993 v -0.805981 z"
         style="font-size:4.35527px"
         id="path1581" />
      <path
         d="m -66.395411,23.211253 -0.121216,-0.02552 v -1.782088 q -0.01276,0 -0.03828,-0.0021 -0.02339,-0.0021 -0.03615,-0.0021 -0.231799,0 -0.346635,0.138229 -0.114836,0.140355 -0.114836,0.418939 0,0.240306 0.0723,0.50613 0.0723,0.267952 0.214786,0.561422 l -0.591194,-0.116963 q -0.102076,-0.278584 -0.150988,-0.555042 -0.05104,-0.274331 -0.05104,-0.559295 0,-0.557168 0.257318,-0.861271 0.257318,-0.301977 0.727296,-0.301977 0.272204,0 0.527396,0.0957 0.257318,0.09782 0.469978,0.282837 0.255191,0.21904 0.38704,0.523143 0.131849,0.30623 0.131849,0.678384 0,0.482738 -0.257318,0.765575 -0.257318,0.284964 -0.693271,0.284964 -0.08506,0 -0.18076,-0.01276 -0.09357,-0.01063 -0.20628,-0.03615 z m 0.348762,-0.718789 q 0.02765,0.0064 0.05529,0.0085 0.02977,0.0043 0.05742,0.0043 0.170128,0 0.270078,-0.102076 0.09995,-0.102077 0.09995,-0.276458 0,-0.223293 -0.123342,-0.380661 -0.121216,-0.155241 -0.359395,-0.238179 z"
         style="font-size:4.35527px"
         id="path1583" />
    </g>
    <g
       aria-label="I"
       transform="matrix(0,-1.2546699,0.79702239,0,0,0)"
       id="text2404-0"
       style="font-style:italic;font-weight:bold;font-size:8.67809px;-inkscape-font-specification:'sans-serif, Bold Italic';writing-mode:vertical-lr;direction:rtl;fill:#ffffff;stroke-width:0.0216953">
      <path
         d="m -49.339338,-37.330095 v 1.631379 l -6.326362,-1.233068 v -1.63138 z"
         id="path1586" />
    </g>
  </g>
</svg>
