<svg class="diagram-root" style="background: #f5f6f6" xmlns="http://www.w3.org/2000/svg" xmlns:xlink="http://www.w3.org/1999/xlink"><style>.diagram-root { font-family: "Helvetica Neue", sans-serif; font-size: 12px; } .t { overflow: visible; } .t-bg { y: 40; fill: #fff;   } .th { fill: #005aa0;   } .tht { fill: #fff; font-size: 14px;  } .tf { fill: #323c46; overflow: visible; } .tf.pk { fill: #005aa0; font-weight: bold; } .tf.fk { font-weight: bold; } .ty { fill: #adb1b5; font-weight: normal; text-anchor: end; } .r { fill: transparent; stroke: #c3c3c3; stroke-width: 1; } .l { stroke: 1; } .i { fill: #c2c7ce; stroke: #c2c7ce; } .i.ix { fill: #afb3b6; stroke: #000; } .fa { fill: transparent; overflow: visible; } .fa .bg.hover { fill: #f7f7f7; } .c { cy: 12; r: 4; stroke: #d2d2dc; fill: #d2d2dc; } .hr { fill: transparent; stroke: #323c46; stroke-opacity: 0.035; stroke-width: 13; } .dc { stroke: #fa5a3c; fill: #fa5a3c; } .x { stroke: white; stroke-width: 1; } .hl .th { fill: #1b9bff; } .hl .tht {  } .fhl .bg { fill: #e7f4ff; } .fhls .bg {  } .r.hl { stroke: #1b9bff; } .dim { opacity: 0.25; }</style><g class="drawing-wrapper" transform="translate(2, 18) scale(1,1)"><g class="rs"><path d="M 97 295 m -1, 0 a 1,1 0 1,0 2,0 a 1,1 0 1,0 -2,0 M 97 295 m -0.5, 0 a 0.5,0.5 0 1,0 1,0 a 0.5,0.5 0 1,0 -1,0  M97 295 L97 295 85 295 M 97 301 m -1, 0 a 1,1 0 1,0 2,0 a 1,1 0 1,0 -2,0 M 97 301 m -0.5, 0 a 0.5,0.5 0 1,0 1,0 a 0.5,0.5 0 1,0 -1,0  M97 301 L97 301 90 295 97 289 M 97 289 m -1, 0 a 1,1 0 1,0 2,0 a 1,1 0 1,0 -2,0 M 97 289 m -0.5, 0 a 0.5,0.5 0 1,0 1,0 a 0.5,0.5 0 1,0 -1,0  M85 295 C 35 295, 21.199999999999996 508, 108 508 M 120 508 m -1, 0 a 1,1 0 1,0 2,0 a 1,1 0 1,0 -2,0 M 120 508 m -0.5, 0 a 0.5,0.5 0 1,0 1,0 a 0.5,0.5 0 1,0 -1,0  M120 508 L120 508 108 508 M114 514 L114 514 114 502" id="h2251231266" class="r"></path><path d="M 228.05 320 m -1, 0 a 1,1 0 1,0 2,0 a 1,1 0 1,0 -2,0 M 228.05 320 m -0.5, 0 a 0.5,0.5 0 1,0 1,0 a 0.5,0.5 0 1,0 -1,0  M228.05 320 L228.05 320 240.05 320 M 228.05 326 m -1, 0 a 1,1 0 1,0 2,0 a 1,1 0 1,0 -2,0 M 228.05 326 m -0.5, 0 a 0.5,0.5 0 1,0 1,0 a 0.5,0.5 0 1,0 -1,0  M228.05 326 L228.05 326 235.05 320 228.05 314 M 228.05 314 m -1, 0 a 1,1 0 1,0 2,0 a 1,1 0 1,0 -2,0 M 228.05 314 m -0.5, 0 a 0.5,0.5 0 1,0 1,0 a 0.5,0.5 0 1,0 -1,0  M240.05 320 C 290.05 320, 311.788 87, 203.82 87 M 191.82 87 m -1, 0 a 1,1 0 1,0 2,0 a 1,1 0 1,0 -2,0 M 191.82 87 m -0.5, 0 a 0.5,0.5 0 1,0 1,0 a 0.5,0.5 0 1,0 -1,0  M191.82 87 L191.82 87 203.82 87 M197.82 93 L197.82 93 197.82 81" id="h4105890628" class="r"></path><path d="M 538.51 404 m -1, 0 a 1,1 0 1,0 2,0 a 1,1 0 1,0 -2,0 M 538.51 404 m -0.5, 0 a 0.5,0.5 0 1,0 1,0 a 0.5,0.5 0 1,0 -1,0  M538.51 404 L538.51 404 550.51 404 M 538.51 410 m -1, 0 a 1,1 0 1,0 2,0 a 1,1 0 1,0 -2,0 M 538.51 410 m -0.5, 0 a 0.5,0.5 0 1,0 1,0 a 0.5,0.5 0 1,0 -1,0  M538.51 410 L538.51 410 545.51 404 538.51 398 M 538.51 398 m -1, 0 a 1,1 0 1,0 2,0 a 1,1 0 1,0 -2,0 M 538.51 398 m -0.5, 0 a 0.5,0.5 0 1,0 1,0 a 0.5,0.5 0 1,0 -1,0  M550.51 404 C 604.078 404, 602.74 87, 552.74 87 M 540.74 87 m -1, 0 a 1,1 0 1,0 2,0 a 1,1 0 1,0 -2,0 M 540.74 87 m -0.5, 0 a 0.5,0.5 0 1,0 1,0 a 0.5,0.5 0 1,0 -1,0  M540.74 87 L540.74 87 552.74 87 M546.74 93 L546.74 93 546.74 81" id="h1046542161" class="r"></path></g><g class="hrs"></g><g class="ts"><svg width="161.82" height="125" x="30" y="30" id="h274063030" class="t"><rect height="40" width="161.82" class="th"></rect><text x="13" y="25" class="tht">assets</text><rect height="85" width="161.82" class="t-bg"></rect><text x="13" y="61" class="tf pk">asset_id<tspan x="148.82" class="ty">SERIAL</tspan></text><path d="M7,14A2,2 0 0,1 5,12A2,2 0 0,1 7,10A2,2 0 0,1 9,12A2,2 0 0,1 7,14M12.65,10C11.83,7.67 9.61,6 7, 6A6, 6 0 0, 0 1, 12A6, 6 0 0, 0 7, 18C9.61, 18 11.83, 16.33 12.65, 14H17V18H21V14H23V10H12.65Z" class="i pk" transform="translate(86.134453125, 48) scale(0.65)"></path><text x="13" y="86" class="tf">ticker<tspan x="148.82" class="ty">VARCHAR(255)</tspan></text><text x="13" y="111" class="tf">name<tspan x="148.82" class="ty">VARCHAR(255)</tspan></text></svg><svg width="176.74" height="250" x="364" y="30" id="h508164977" class="t"><rect height="40" width="176.74" class="th"></rect><text x="13" y="25" class="tht">exchanges</text><rect height="210" width="176.74" class="t-bg"></rect><text x="13" y="61" class="tf pk">exchange_id<tspan x="163.74" class="ty">SERIAL</tspan></text><path d="M7,14A2,2 0 0,1 5,12A2,2 0 0,1 7,10A2,2 0 0,1 9,12A2,2 0 0,1 7,14M12.65,10C11.83,7.67 9.61,6 7, 6A6, 6 0 0, 0 1, 12A6, 6 0 0, 0 7, 18C9.61, 18 11.83, 16.33 12.65, 14H17V18H21V14H23V10H12.65Z" class="i pk" transform="translate(101.05445312500001, 48) scale(0.65)"></path><text x="13" y="86" class="tf">name<tspan x="163.74" class="ty">VARCHAR(255)</tspan></text><text x="13" y="111" class="tf">address<tspan x="163.74" class="ty">VARCHAR(255)</tspan></text><text x="13" y="136" class="tf">city<tspan x="163.74" class="ty">VARCHAR(255)</tspan></text><text x="13" y="161" class="tf">region<tspan x="163.74" class="ty">VARCHAR(255)</tspan></text><text x="13" y="186" class="tf">country<tspan x="163.74" class="ty">VARCHAR(255)</tspan></text><text x="13" y="211" class="tf">latitude<tspan x="163.74" class="ty">FLOAT</tspan></text><text x="13" y="236" class="tf">longitude<tspan x="163.74" class="ty">FLOAT</tspan></text></svg><svg width="178.51" height="250" x="360" y="322" id="h3284762099" class="t"><rect height="40" width="178.51" class="th"></rect><text x="13" y="25" class="tht">exchange_connections</text><rect height="210" width="178.51" class="t-bg"></rect><text x="13" y="61" class="tf pk">exconn_id<tspan x="165.51" class="ty">SERIAL</tspan></text><path d="M7,14A2,2 0 0,1 5,12A2,2 0 0,1 7,10A2,2 0 0,1 9,12A2,2 0 0,1 7,14M12.65,10C11.83,7.67 9.61,6 7, 6A6, 6 0 0, 0 1, 12A6, 6 0 0, 0 7, 18C9.61, 18 11.83, 16.33 12.65, 14H17V18H21V14H23V10H12.65Z" class="i pk" transform="translate(102.82445312499999, 48) scale(0.65)"></path><text x="13" y="86" class="tf fk">exchange_id<tspan x="165.51" class="ty">INT</tspan></text><text x="13" y="111" class="tf">user_id<tspan x="165.51" class="ty">VARCHAR(255)</tspan></text><text x="13" y="136" class="tf">date_added<tspan x="165.51" class="ty">TIMESTAMP</tspan></text><text x="13" y="161" class="tf">api_1<tspan x="165.51" class="ty">VARCHAR(255)</tspan></text><text x="13" y="186" class="tf">api_2<tspan x="165.51" class="ty">VARCHAR(255)</tspan></text><text x="13" y="211" class="tf">api_3<tspan x="165.51" class="ty">VARCHAR(255)</tspan></text><text x="13" y="236" class="tf">api_4<tspan x="165.51" class="ty">VARCHAR(255)</tspan></text></svg><svg width="167.39" height="125" x="120" y="451" id="h2780094333" class="t"><rect height="40" width="167.39" class="th"></rect><text x="13" y="25" class="tht">portfolios</text><rect height="85" width="167.39" class="t-bg"></rect><text x="13" y="61" class="tf pk">portfolio_id<tspan x="154.39" class="ty">SERIAL</tspan></text><path d="M7,14A2,2 0 0,1 5,12A2,2 0 0,1 7,10A2,2 0 0,1 9,12A2,2 0 0,1 7,14M12.65,10C11.83,7.67 9.61,6 7, 6A6, 6 0 0, 0 1, 12A6, 6 0 0, 0 7, 18C9.61, 18 11.83, 16.33 12.65, 14H17V18H21V14H23V10H12.65Z" class="i pk" transform="translate(91.70445312499999, 48) scale(0.65)"></path><text x="13" y="86" class="tf">name<tspan x="154.39" class="ty">VARCHAR(255)</tspan></text><text x="13" y="111" class="tf">investment_period<tspan x="154.39" class="ty">INT</tspan></text></svg><svg width="131.05" height="125" x="97" y="238" id="h1261190140" class="t"><rect height="40" width="131.05" class="th"></rect><text x="13" y="25" class="tht">assets_portfolios</text><rect height="85" width="131.05" class="t-bg"></rect><text x="13" y="61" class="tf fk">portfolio_id<tspan x="118.05000000000001" class="ty">INT</tspan></text><text x="13" y="86" class="tf fk">asset_id<tspan x="118.05000000000001" class="ty">INT</tspan></text><text x="13" y="111" class="tf">weight<tspan x="118.05000000000001" class="ty">FLOAT</tspan></text></svg></g></g><text class="qdbd-link" x="10" y="20">www.quickdatabasediagrams.com</text></svg>